<svg xmlns="http://www.w3.org/2000/svg" height="800" width="1200" version="1.0" viewBox="-29.1717 -29.07225 252.8214 174.4335"><path d="M2.677 109.818a15852.05 15852.05 0 0121.349-41.212c10.426-20.033 17.122-33.884 16.629-34.4-.313-.327-9.012.275-19.332 1.338C11.004 36.607 1.681 37.3.606 37.084c-1.702-.344 32.673-8.658 89.509-21.65 9.317-2.13 21.515-4.967 27.105-6.304 5.59-1.337 16.263-3.808 23.717-5.49 7.454-1.683 14.57-3.318 15.812-3.635 1.242-.316-24.17 13.31-56.47 30.28S41 61.756 40.323 62.51c-.674.754-2.707 8.167-4.517 16.474l-3.29 15.103-14.118 9.604a7364.412 7364.412 0 01-16.71 11.346c-2.424 1.628-2.359 1.287.989-5.22z"/><path d="M51.841 48.106c4.279-2.506 12.1-7.076 17.38-10.155 5.28-3.08 10.082-6.079 10.673-6.664 1.404-1.394-.34-1.365-17.753.288-14.176 1.345-14.433 1.42-15.06 4.437-.35 1.688-1.356 5.422-2.236 8.298-1.556 5.086-2.022 8.352-1.192 8.352.225 0 3.91-2.05 8.188-4.556z" fill="#fff"/><path d="M122.867 111.61c-3.106-2.589-13.448-10.855-22.982-18.37L82.551 79.577l-5.406 3.077c-2.974 1.692-5.68 3.077-6.016 3.077-.336 0 1.676-7.15 4.469-15.888l5.079-15.889 3.142 3.783c1.728 2.08 9.66 12.286 17.627 22.68 7.967 10.392 17.443 22.497 21.059 26.898 8.836 10.756 8.89 11.4.362 4.294zm30.469-14.954c2.06-6.334 6.172-19.41 9.138-29.059l5.39-17.543-2.11-4.306c-1.16-2.368-2.342-4.787-2.627-5.376-.3-.62 2.124-.745 5.772-.296 6.176.759 6.41.676 12.882-4.557 10.765-8.704 13.243-10.546 12.604-9.367-.334.615-2.643 4.838-5.131 9.385a1233.889 1233.889 0 00-7.634 14.173c-1.71 3.247-7.28 13.611-12.38 23.03-5.098 9.418-11.428 21.243-14.066 26.278-2.637 5.034-4.973 9.153-5.19 9.153-.216 0 1.292-5.182 3.352-11.515zM42.23 81.459c9.93-22.186 11.003-24.068 13.74-24.125 1.387-.028 6.333-.513 10.992-1.078 4.659-.565 8.589-.905 8.733-.757.144.15-2.878 2.586-6.716 5.417-5.949 4.387-6.654 5.27-4.78 5.99 7.859 3.023 7.913 2.418-.777 8.659l-8.045 5.777 4.38 3.853 4.382 3.853-3.953.66c-2.174.364-8.324 1.381-13.666 2.261l-9.712 1.6zM98.842 66.87c-5.66-7.814-10.156-14.208-9.99-14.208.166 0 4.076 1.343 8.688 2.985l8.386 2.984 14.093-15.68c17.105-19.031 30.96-33.818 30.186-32.215-.314.65-4.76 8.355-9.882 17.125a5018.02 5018.02 0 00-19.436 33.659c-5.568 9.743-10.49 18.13-10.939 18.637-.448.507-5.446-5.472-11.106-13.287zm28.749-5.756l8.752-17.487 10.655-1.407c5.86-.774 10.84-1.213 11.067-.976.226.237-2.391 2.377-5.817 4.756-3.426 2.378-6.228 4.808-6.228 5.4 0 .59 1.518 1.423 3.375 1.85 1.856.426 3.609 1.17 3.895 1.654.286.484-2.74 3.12-6.724 5.86-3.983 2.739-7.506 5.425-7.828 5.97-.321.544 1.449 2.462 3.934 4.263 2.485 1.801 4.363 3.437 4.173 3.635-.19.198-5.154.925-11.032 1.615s-12.102 1.502-13.83 1.804c-3.115.545-3.065.393 5.608-16.937z"/></svg>